<svg xmlns="http://www.w3.org/2000/svg" version="1.1" xmlns:xlink="http://www.w3.org/1999/xlink" xmlns:svgjs="http://svgjs.dev/svgjs" width="1000" height="1000" viewBox="0 0 1000 1000"><rect width="1000" height="1000" fill="#ffffff"></rect><g transform="matrix(0.7,0,0,0.7,149.57575757575756,282.1265587044535)"><svg viewBox="0 0 396 247" data-background-color="#ffffff" preserveAspectRatio="xMidYMid meet" height="623" width="1000" xmlns="http://www.w3.org/2000/svg" xmlns:xlink="http://www.w3.org/1999/xlink"><g id="tight-bounds" transform="matrix(1,0,0,1,0.2400000000000091,-0.09999999999999432)"><svg viewBox="0 0 395.52 247.2" height="247.2" width="395.52"><g><svg></svg></g><g><svg viewBox="0 0 395.52 247.2" height="247.2" width="395.52"><g transform="matrix(1,0,0,1,39.55199999999999,111.99406184105608)"><svg viewBox="0 0 316.416 23.21187631788784" height="23.21187631788784" width="316.416"><g><svg viewBox="0 0 316.416 23.21187631788784" height="23.21187631788784" width="316.416"><g><svg viewBox="0 0 316.416 23.21187631788784" height="23.21187631788784" width="316.416"><g><svg viewBox="0 0 316.416 23.21187631788784" height="23.21187631788784" width="316.416"><g><svg viewBox="0 0 316.416 23.21187631788784" height="23.21187631788784" width="316.416"><g><svg viewBox="0 0 316.416 23.21187631788784" height="23.21187631788784" width="316.416"><g transform="matrix(1,0,0,1,0,0)"><svg width="316.416" viewBox="3.549999952316284 -40.900001525878906 564.2900390625 41.400001525878906" height="23.21187631788784" data-palette-color="#51c4f8"><path d="M7.35 0L3.55 0 3.55-40.5 13.25-40.5Q16.9-40.5 19-39.15 21.1-37.8 21.98-35.4 22.85-33 22.85-29.75L22.85-29.75Q22.85-26.9 21.93-24.48 21-22.05 18.88-20.6 16.75-19.15 13.3-19.15L13.3-19.15 7.35-19.15 7.35 0ZM7.35-37.65L7.35-22 12.2-22Q14.65-22 16.18-22.73 17.7-23.45 18.4-25.15 19.1-26.85 19.1-29.75L19.1-29.75Q19.1-32.85 18.5-34.58 17.9-36.3 16.43-36.98 14.95-37.65 12.25-37.65L12.25-37.65 7.35-37.65ZM31.5 0L27.7 0 27.7-40.5 36.85-40.5Q40.65-40.5 42.82-39.28 45-38.05 45.95-35.73 46.9-33.4 46.9-30.2L46.9-30.2Q46.9-27.95 46.4-25.95 45.9-23.95 44.7-22.55 43.5-21.15 41.3-20.7L41.3-20.7 47.5 0 43.8 0 37.85-19.9 31.5-19.9 31.5 0ZM31.5-37.65L31.5-22.7 36.65-22.7Q39.2-22.7 40.6-23.55 42-24.4 42.6-26.05 43.2-27.7 43.2-30.2L43.2-30.2Q43.2-33.95 41.9-35.8 40.6-37.65 36.75-37.65L36.75-37.65 31.5-37.65ZM54.8 0L51.1 0 59.65-40.5 63.65-40.5 72.25 0 68.5 0 66.5-10.85 56.85-10.85 54.8 0ZM61.7-35.45L57.4-13.6 66-13.6 61.7-35.45ZM81.04 0L77.24 0 77.24-40.5 81.04-40.5 81.04 0ZM89.74 0L86.04 0 94.59-40.5 98.59-40.5 107.19 0 103.44 0 101.44-10.85 91.79-10.85 89.74 0ZM96.64-35.45L92.34-13.6 100.94-13.6 96.64-35.45ZM131.69 0.5L131.69 0.5Q127.58 0.5 125.36-1.2 123.14-2.9 122.28-5.78 121.44-8.65 121.44-12.15L121.44-12.15 121.44-28.25Q121.44-32 122.31-34.85 123.19-37.7 125.44-39.3 127.69-40.9 131.69-40.9L131.69-40.9Q135.34-40.9 137.41-39.5 139.49-38.1 140.38-35.52 141.28-32.95 141.28-29.4L141.28-29.4 141.28-26.95 137.69-26.95 137.69-29.3Q137.69-31.95 137.26-33.85 136.84-35.75 135.53-36.8 134.24-37.85 131.74-37.85L131.74-37.85Q128.99-37.85 127.61-36.73 126.23-35.6 125.76-33.55 125.28-31.5 125.28-28.8L125.28-28.8 125.28-11.55Q125.28-8.55 125.86-6.55 126.44-4.55 127.83-3.55 129.24-2.55 131.74-2.55L131.74-2.55Q134.28-2.55 135.56-3.65 136.84-4.75 137.26-6.73 137.69-8.7 137.69-11.35L137.69-11.35 137.69-14 141.28-14 141.28-11.6Q141.28-8.05 140.46-5.33 139.63-2.6 137.56-1.05 135.49 0.5 131.69 0.5ZM151.03 0L147.18 0 147.18-40.5 151.03-40.5 151.03-22.55 163.78-22.55 163.78-40.5 167.58-40.5 167.58 0 163.78 0 163.78-19.7 151.03-19.7 151.03 0ZM176.18 0L172.48 0 181.03-40.5 185.03-40.5 193.63 0 189.88 0 187.88-10.85 178.23-10.85 176.18 0ZM183.08-35.45L178.78-13.6 187.38-13.6 183.08-35.45ZM201.33 0L198.18 0 199.18-40.5 202.98-40.5 210.98-5.35 219.13-40.5 222.93-40.5 223.93 0 220.78 0 219.98-32.25 212.23 0 209.78 0 202.13-32.2 201.33 0ZM240.68 0L230.68 0 230.68-40.5 239.38-40.5Q242.13-40.5 244.03-39.8 245.93-39.1 247.07-37.75 248.22-36.4 248.75-34.52 249.28-32.65 249.28-30.4L249.28-30.4Q249.28-28.45 248.8-26.63 248.32-24.8 247.22-23.53 246.13-22.25 244.13-21.85L244.13-21.85Q246.47-21.2 247.82-19.63 249.18-18.05 249.7-15.98 250.22-13.9 250.22-11.7L250.22-11.7Q250.22-9.3 249.8-7.18 249.38-5.05 248.3-3.45 247.22-1.85 245.38-0.93 243.53 0 240.68 0L240.68 0ZM234.47-20.1L234.47-2.85 239.93-2.85Q243.88-2.85 245.2-5 246.53-7.15 246.53-11.7L246.53-11.7Q246.53-14.15 245.93-16.05 245.32-17.95 243.9-19.03 242.47-20.1 240.03-20.1L240.03-20.1 234.47-20.1ZM234.47-37.55L234.47-23.05 239.97-23.05Q242.32-23.05 243.57-23.98 244.82-24.9 245.32-26.53 245.82-28.15 245.82-30.4L245.82-30.4Q245.82-32.85 245.15-34.45 244.47-36.05 242.82-36.8 241.18-37.55 238.07-37.55L238.07-37.55 234.47-37.55ZM270.47 0L255.72 0 255.72-40.5 270.37-40.5 270.37-37.55 259.57-37.55 259.57-22.35 268.37-22.35 268.37-19.55 259.57-19.55 259.57-2.85 270.47-2.85 270.47 0ZM279.47 0L275.67 0 275.67-40.5 284.82-40.5Q288.62-40.5 290.8-39.28 292.97-38.05 293.92-35.73 294.87-33.4 294.87-30.2L294.87-30.2Q294.87-27.95 294.37-25.95 293.87-23.95 292.67-22.55 291.47-21.15 289.27-20.7L289.27-20.7 295.47 0 291.77 0 285.82-19.9 279.47-19.9 279.47 0ZM279.47-37.65L279.47-22.7 284.62-22.7Q287.17-22.7 288.57-23.55 289.97-24.4 290.57-26.05 291.17-27.7 291.17-30.2L291.17-30.2Q291.17-33.95 289.87-35.8 288.57-37.65 284.72-37.65L284.72-37.65 279.47-37.65ZM321.06 0.5L321.06 0.5Q317.02 0.5 314.74-1.07 312.47-2.65 311.54-5.48 310.62-8.3 310.62-11.95L310.62-11.95 310.62-28.75Q310.62-32.45 311.59-35.18 312.56-37.9 314.84-39.4 317.12-40.9 321.06-40.9L321.06-40.9Q324.97-40.9 327.24-39.4 329.52-37.9 330.47-35.18 331.42-32.45 331.42-28.75L331.42-28.75 331.42-11.9Q331.42-8.25 330.49-5.48 329.56-2.7 327.31-1.1 325.06 0.5 321.06 0.5ZM321.06-2.55L321.06-2.55Q323.72-2.55 325.12-3.63 326.52-4.7 327.04-6.63 327.56-8.55 327.56-11.1L327.56-11.1 327.56-29.45Q327.56-32 327.04-33.9 326.52-35.8 325.12-36.83 323.72-37.85 321.06-37.85L321.06-37.85Q318.37-37.85 316.94-36.83 315.52-35.8 314.99-33.9 314.47-32 314.47-29.45L314.47-29.45 314.47-11.1Q314.47-8.55 314.99-6.63 315.52-4.7 316.94-3.63 318.37-2.55 321.06-2.55ZM341.51 0L337.71 0 337.71-40.5 352.26-40.5 352.26-37.65 341.51-37.65 341.51-22.4 350.46-22.4 350.46-19.6 341.51-19.6 341.51 0ZM376.61 0.5L376.61 0.5Q372.51 0.5 370.28-1.2 368.06-2.9 367.21-5.78 366.36-8.65 366.36-12.15L366.36-12.15 366.36-28.25Q366.36-32 367.23-34.85 368.11-37.7 370.36-39.3 372.61-40.9 376.61-40.9L376.61-40.9Q380.26-40.9 382.33-39.5 384.41-38.1 385.31-35.52 386.21-32.95 386.21-29.4L386.21-29.4 386.21-26.95 382.61-26.95 382.61-29.3Q382.61-31.95 382.18-33.85 381.76-35.75 380.46-36.8 379.16-37.85 376.66-37.85L376.66-37.85Q373.91-37.85 372.53-36.73 371.16-35.6 370.68-33.55 370.21-31.5 370.21-28.8L370.21-28.8 370.21-11.55Q370.21-8.55 370.78-6.55 371.36-4.55 372.76-3.55 374.16-2.55 376.66-2.55L376.66-2.55Q379.21-2.55 380.48-3.65 381.76-4.75 382.18-6.73 382.61-8.7 382.61-11.35L382.61-11.35 382.61-14 386.21-14 386.21-11.6Q386.21-8.05 385.38-5.33 384.56-2.6 382.48-1.05 380.41 0.5 376.61 0.5ZM401.75 0.5L401.75 0.5Q397.71 0.5 395.43-1.07 393.16-2.65 392.23-5.48 391.31-8.3 391.31-11.95L391.31-11.95 391.31-28.75Q391.31-32.45 392.28-35.18 393.25-37.9 395.53-39.4 397.81-40.9 401.75-40.9L401.75-40.9Q405.66-40.9 407.93-39.4 410.21-37.9 411.16-35.18 412.11-32.45 412.11-28.75L412.11-28.75 412.11-11.9Q412.11-8.25 411.18-5.48 410.25-2.7 408-1.1 405.75 0.5 401.75 0.5ZM401.75-2.55L401.75-2.55Q404.41-2.55 405.81-3.63 407.21-4.7 407.73-6.63 408.25-8.55 408.25-11.1L408.25-11.1 408.25-29.45Q408.25-32 407.73-33.9 407.21-35.8 405.81-36.83 404.41-37.85 401.75-37.85L401.75-37.85Q399.06-37.85 397.63-36.83 396.21-35.8 395.68-33.9 395.16-32 395.16-29.45L395.16-29.45 395.16-11.1Q395.16-8.55 395.68-6.63 396.21-4.7 397.63-3.63 399.06-2.55 401.75-2.55ZM421.2 0L418.05 0 419.05-40.5 422.85-40.5 430.85-5.35 439-40.5 442.8-40.5 443.8 0 440.65 0 439.85-32.25 432.1 0 429.65 0 422-32.2 421.2 0ZM453.35 0L450.2 0 451.2-40.5 455-40.5 463-5.35 471.15-40.5 474.95-40.5 475.95 0 472.8 0 472-32.25 464.25 0 461.8 0 454.15-32.2 453.35 0ZM497.4 0L482.65 0 482.65-40.5 497.3-40.5 497.3-37.55 486.5-37.55 486.5-22.35 495.3-22.35 495.3-19.55 486.5-19.55 486.5-2.85 497.4-2.85 497.4 0ZM506.39 0L502.59 0 502.59-40.5 511.74-40.5Q515.54-40.5 517.72-39.28 519.89-38.05 520.84-35.73 521.79-33.4 521.79-30.2L521.79-30.2Q521.79-27.95 521.29-25.95 520.79-23.95 519.59-22.55 518.39-21.15 516.19-20.7L516.19-20.7 522.39 0 518.69 0 512.75-19.9 506.39-19.9 506.39 0ZM506.39-37.65L506.39-22.7 511.54-22.7Q514.09-22.7 515.5-23.55 516.89-24.4 517.5-26.05 518.09-27.7 518.09-30.2L518.09-30.2Q518.09-33.95 516.79-35.8 515.5-37.65 511.64-37.65L511.64-37.65 506.39-37.65ZM537.59 0.5L537.59 0.5Q533.49 0.5 531.27-1.2 529.04-2.9 528.19-5.78 527.34-8.65 527.34-12.15L527.34-12.15 527.34-28.25Q527.34-32 528.22-34.85 529.09-37.7 531.34-39.3 533.59-40.9 537.59-40.9L537.59-40.9Q541.24-40.9 543.32-39.5 545.39-38.1 546.29-35.52 547.19-32.95 547.19-29.4L547.19-29.4 547.19-26.95 543.59-26.95 543.59-29.3Q543.59-31.95 543.17-33.85 542.74-35.75 541.44-36.8 540.14-37.85 537.64-37.85L537.64-37.85Q534.89-37.85 533.52-36.73 532.14-35.6 531.67-33.55 531.19-31.5 531.19-28.8L531.19-28.8 531.19-11.55Q531.19-8.55 531.77-6.55 532.34-4.55 533.74-3.55 535.14-2.55 537.64-2.55L537.64-2.55Q540.19-2.55 541.47-3.65 542.74-4.75 543.17-6.73 543.59-8.7 543.59-11.35L543.59-11.35 543.59-14 547.19-14 547.19-11.6Q547.19-8.05 546.37-5.33 545.54-2.6 543.47-1.05 541.39 0.5 537.59 0.5ZM567.84 0L553.09 0 553.09-40.5 567.74-40.5 567.74-37.55 556.94-37.55 556.94-22.35 565.74-22.35 565.74-19.55 556.94-19.55 556.94-2.85 567.84-2.85 567.84 0Z" opacity="1" transform="matrix(1,0,0,1,0,0)" fill="#000000" class="undefined-text-0" data-fill-palette-color="primary" id="text-0"></path></svg></g></svg></g></svg></g></svg></g><g></g></svg></g></svg></g></svg></g><g mask="url(#969b727a-850b-4426-be60-9ff9f6391e61)"><g transform="matrix(2.5068241555390856, 0, 0, 2.5068241555390856, 102.89425723054228, 0.9999999999999858)"><svg xmlns="http://www.w3.org/2000/svg" xmlns:xlink="http://www.w3.org/1999/xlink" version="1.1" x="0" y="0" viewBox="12.982999801635742 1 75.68599700927734 97.81300354003906" enable-background="new 0 0 100 100" xml:space="preserve" height="97.81300354003906" width="75.68599700927734" class="icon-none" data-fill-palette-color="accent" id="none"><g fill="#4acefb" data-fill-palette-color="accent"><polygon fill-rule="evenodd" clip-rule="evenodd" points="12.983,10.59 30.001,98.813 24.129,39.764 53.15,37.872 53.096,27.989    64.549,1 53.622,18.977  " fill="#000000" data-fill-palette-color="accent"></polygon><polygon fill-rule="evenodd" clip-rule="evenodd" points="59.389,54.548 64.549,1.007 55.809,40.723 36.197,41.768 37.767,62.23    30.001,98.813 42.058,58.914  " fill="#000000" data-fill-palette-color="accent"></polygon><polygon fill-rule="evenodd" clip-rule="evenodd" points="62.8,67.182 63.349,56.729 47.37,60.484 47.338,72.281 30.001,98.813    51.681,71.197  " fill="#000000" data-fill-palette-color="accent"></polygon><polygon fill-rule="evenodd" clip-rule="evenodd" points="65.711,62.394 80.552,57.663 82.061,45.131 66.162,47.226  " fill="#000000" data-fill-palette-color="accent"></polygon><polygon fill-rule="evenodd" clip-rule="evenodd" points="72.07,44.502 83.058,43.085 84.639,32.807 76.56,32.434 64.549,1    72.979,31.967  " fill="#000000" data-fill-palette-color="accent"></polygon><polygon fill-rule="evenodd" clip-rule="evenodd" points="87.413,31.294 88.669,21.788 79.125,19.094 64.549,1 79.032,23.437    78.61,30.437  " fill="#000000" data-fill-palette-color="accent"></polygon></g></svg></g></g></svg></g><defs><mask id="3d1f3cfa-32e5-4191-9455-fda66a8abd9c"><rect width="640" height="400" fill="white"></rect><rect width="348.05760000000004" height="34.17141014513122" fill="black" x="145.97119999999998" y="182.91429492743438" id="transform-me" transform="matrix(1,0,0,1,-122.24000000000001,-76.4)"></rect></mask><mask id="815d9895-f6f5-4dc9-8ccb-439fb8feed61"><rect width="640" height="400" fill="white"></rect><rect width="348.05760000000004" height="34.17141014513122" fill="black" x="145.97119999999998" y="182.91429492743438" id="transform-me" transform="matrix(1,0,0,1,-122.24000000000001,-76.4)"></rect></mask><mask id="b2770514-a0de-486c-8e2c-03c1686a9779"><rect width="640" height="400" fill="white"></rect><rect width="348.05760000000004" height="34.17141014513122" fill="black" x="145.97119999999998" y="182.91429492743438" id="transform-me" transform="matrix(1,0,0,1,-122.24000000000001,-76.4)"></rect></mask><mask id="969b727a-850b-4426-be60-9ff9f6391e61"><rect width="640" height="400" fill="white"></rect><rect width="348.05760000000004" height="34.17141014513122" fill="black" x="145.97119999999998" y="182.91429492743438" id="transform-me" transform="matrix(1,0,0,1,-122.24000000000001,-76.4)"></rect></mask></defs></svg><rect width="395.52" height="247.2" fill="none" stroke="none" visibility="hidden"></rect></g></svg></g></svg>