<svg xmlns="http://www.w3.org/2000/svg" version="1.1" xmlns:xlink="http://www.w3.org/1999/xlink" xmlns:svgjs="http://svgjs.dev/svgjs" width="1000" height="1012" viewBox="0 0 1000 1012"><g transform="matrix(1,0,0,1,0.8839552378414055,0.40971659919023296)"><svg viewBox="0 0 244 247" data-background-color="#ffffff" preserveAspectRatio="xMidYMid meet" height="1012" width="1000" xmlns="http://www.w3.org/2000/svg" xmlns:xlink="http://www.w3.org/1999/xlink"><g id="tight-bounds" transform="matrix(1,0,0,1,-0.21568475027285672,-0.09999999999999432)"><svg viewBox="0 0 244.43135999999998 247.2" height="247.2" width="244.43135999999998"><g><svg></svg></g><g><svg viewBox="0 0 244.43135999999998 247.2" height="247.2" width="244.43135999999998"><g transform="matrix(1,0,0,1,0,56.50288148389414)"><svg viewBox="0 0 244.43135999999998 134.1942370322117" height="134.1942370322117" width="244.43135999999998"><g><svg viewBox="0 0 244.43135999999998 134.1942370322117" height="134.1942370322117" width="244.43135999999998"><g><svg viewBox="0 0 244.43135999999998 134.1942370322117" height="134.1942370322117" width="244.43135999999998"><g><svg viewBox="0 0 244.43135999999998 134.1942370322117" height="134.1942370322117" width="244.43135999999998"><g><svg viewBox="0 0 244.43135999999998 134.1942370322117" height="134.1942370322117" width="244.43135999999998"><g><svg viewBox="0 0 244.43135999999998 91.80408029418975" height="91.80408029418975" width="244.43135999999998"><g transform="matrix(1,0,0,1,0,0)"><svg width="244.43135999999998" viewBox="2.8600001335144043 -36.90999984741211 99.56999969482422 37.400001525878906" height="91.80408029418975" data-palette-color="#010c80"><path d="M14.82-12.5L10.03-12.5 10.03 0 2.86 0 2.86-35.55 14.97-35.55Q20.24-35.55 23.38-32.28 26.51-29 26.51-23.78 26.51-18.55 23.41-15.53 20.31-12.5 14.82-12.5L14.82-12.5ZM10.03-29.57L10.03-18.48 14.97-18.48Q17.02-18.48 18.14-19.82 19.26-21.17 19.26-23.73L19.26-23.73Q19.26-26.39 18.12-27.97 16.97-29.54 15.04-29.57L15.04-29.57 10.03-29.57ZM44.06-26.59L43.99-19.75 41.7-19.95Q38.86-19.95 37.86-17.46L37.86-17.46 37.86 0 30.93 0 30.93-26.42 37.45-26.42 37.64-23.56Q39.28-26.9 42.16-26.9L42.16-26.9Q43.33-26.9 44.06-26.59L44.06-26.59ZM66.3 0L59.35 0Q59.05-0.61 58.76-2.05L58.76-2.05Q56.9 0.49 53.73 0.49L53.73 0.49Q50.41 0.49 48.22-1.71 46.04-3.91 46.04-7.4L46.04-7.4Q46.04-11.55 48.69-13.82 51.34-16.09 56.32-16.14L56.32-16.14 58.42-16.14 58.42-18.26Q58.42-20.04 57.81-20.78 57.2-21.51 56.03-21.51L56.03-21.51Q53.44-21.51 53.44-18.48L53.44-18.48 46.53-18.48Q46.53-22.14 49.27-24.52 52.02-26.9 56.22-26.9L56.22-26.9Q60.57-26.9 62.95-24.65 65.33-22.39 65.33-18.19L65.33-18.19 65.33-5.76Q65.38-2.34 66.3-0.42L66.3-0.42 66.3 0ZM55.27-4.93L55.27-4.93Q56.42-4.93 57.22-5.4 58.03-5.86 58.42-6.49L58.42-6.49 58.42-11.99 56.76-11.99Q55-11.99 53.99-10.86 52.97-9.74 52.97-7.86L52.97-7.86Q52.97-4.93 55.27-4.93ZM77.58-26.42L77.58 0 70.65 0 70.65-26.42 77.58-26.42ZM70.33-33.25L70.33-33.25Q70.33-34.86 71.35-35.89 72.38-36.91 74.09-36.91 75.8-36.91 76.82-35.89 77.85-34.86 77.85-33.25L77.85-33.25Q77.85-31.67 76.84-30.62 75.82-29.57 74.09-29.57 72.36-29.57 71.34-30.62 70.33-31.67 70.33-33.25ZM102.43 0L95.47 0Q95.18-0.61 94.89-2.05L94.89-2.05Q93.03 0.49 89.86 0.49L89.86 0.49Q86.54 0.49 84.35-1.71 82.17-3.91 82.17-7.4L82.17-7.4Q82.17-11.55 84.82-13.82 87.47-16.09 92.45-16.14L92.45-16.14 94.55-16.14 94.55-18.26Q94.55-20.04 93.94-20.78 93.32-21.51 92.15-21.51L92.15-21.51Q89.57-21.51 89.57-18.48L89.57-18.48 82.66-18.48Q82.66-22.14 85.4-24.52 88.15-26.9 92.35-26.9L92.35-26.9Q96.69-26.9 99.07-24.65 101.45-22.39 101.45-18.19L101.45-18.19 101.45-5.76Q101.5-2.34 102.43-0.42L102.43-0.42 102.43 0ZM91.4-4.93L91.4-4.93Q92.54-4.93 93.35-5.4 94.16-5.86 94.55-6.49L94.55-6.49 94.55-11.99 92.89-11.99Q91.13-11.99 90.11-10.86 89.1-9.74 89.1-7.86L89.1-7.86Q89.1-4.93 91.4-4.93Z" opacity="1" transform="matrix(1,0,0,1,0,0)" fill="#010c80" class="undefined-text-0" data-fill-palette-color="primary" id="text-0"></path></svg></g></svg></g><g transform="matrix(1,0,0,1,0,113.47682035372088)"><svg viewBox="0 0 244.43135999999998 20.71741667849081" height="20.71741667849081" width="244.43135999999998"><g transform="matrix(1,0,0,1,0,0)"><svg width="244.43135999999998" viewBox="2.200000047683716 -38.0099983215332 454.1999816894531 38.5" height="20.71741667849081" data-palette-color="#53c8fa"><path d="M19.78-11.84L26.95-11.84Q26.68-5.76 23.54-2.64 20.39 0.49 14.65 0.49L14.65 0.49Q8.62 0.49 5.41-3.48 2.2-7.45 2.2-14.79L2.2-14.79 2.2-20.78Q2.2-28.1 5.52-32.07 8.84-36.04 14.75-36.04L14.75-36.04Q20.56-36.04 23.57-32.79 26.59-29.54 27-23.46L27-23.46 19.8-23.46Q19.7-27.22 18.64-28.65 17.58-30.08 14.75-30.08L14.75-30.08Q11.87-30.08 10.67-28.06 9.47-26.05 9.4-21.44L9.4-21.44 9.4-14.72Q9.4-9.42 10.58-7.45 11.77-5.47 14.65-5.47L14.65-5.47Q17.48-5.47 18.55-6.85 19.63-8.23 19.78-11.84L19.78-11.84ZM37.77-37.5L37.77-24.1Q40.01-26.9 43.28-26.9L43.28-26.9Q46.9-26.9 48.78-24.37 50.66-21.83 50.68-16.8L50.68-16.8 50.68 0 43.75 0 43.75-16.72Q43.75-19.04 43.03-20.08 42.31-21.12 40.7-21.12L40.7-21.12Q38.82-21.12 37.77-19.38L37.77-19.38 37.77 0 30.86 0 30.86-37.5 37.77-37.5ZM75.14 0L68.18 0Q67.89-0.61 67.6-2.05L67.6-2.05Q65.74 0.49 62.57 0.49L62.57 0.49Q59.25 0.49 57.06-1.71 54.88-3.91 54.88-7.4L54.88-7.4Q54.88-11.55 57.53-13.82 60.18-16.09 65.16-16.14L65.16-16.14 67.26-16.14 67.26-18.26Q67.26-20.04 66.65-20.78 66.04-21.51 64.86-21.51L64.86-21.51Q62.28-21.51 62.28-18.48L62.28-18.48 55.37-18.48Q55.37-22.14 58.11-24.52 60.86-26.9 65.06-26.9L65.06-26.9Q69.4-26.9 71.78-24.65 74.16-22.39 74.16-18.19L74.16-18.19 74.16-5.76Q74.21-2.34 75.14-0.42L75.14-0.42 75.14 0ZM64.11-4.93L64.11-4.93Q65.25-4.93 66.06-5.4 66.87-5.86 67.26-6.49L67.26-6.49 67.26-11.99 65.6-11.99Q63.84-11.99 62.82-10.86 61.81-9.74 61.81-7.86L61.81-7.86Q61.81-4.93 64.11-4.93ZM79.19-26.42L85.66-26.42 85.86-23.97Q88.18-26.9 91.98-26.9L91.98-26.9Q95.94-26.9 97.58-23.34L97.58-23.34Q99.85-26.9 104.05-26.9L104.05-26.9Q110.98-26.9 111.15-17.31L111.15-17.31 111.15 0 104.24 0 104.24-16.87Q104.24-19.17 103.61-20.14 102.97-21.12 101.46-21.12L101.46-21.12Q99.53-21.12 98.58-18.75L98.58-18.75 98.63-17.92 98.63 0 91.72 0 91.72-16.82Q91.72-19.09 91.11-20.1 90.5-21.12 88.93-21.12L88.93-21.12Q87.15-21.12 86.1-19.19L86.1-19.19 86.1 0 79.19 0 79.19-26.42ZM136.86-14.38L136.86-12.35Q136.86-5.93 134.8-2.72 132.75 0.49 128.36 0.49L128.36 0.49Q124.92 0.49 122.84-2.61L122.84-2.61 122.62 0 116.25 0 116.25-37.5 123.16-37.5 123.16-24.27Q125.11-26.9 128.31-26.9L128.31-26.9Q132.7-26.9 134.76-23.72 136.81-20.53 136.86-14.38L136.86-14.38ZM129.95-11.57L129.95-14.09Q129.95-18.26 129.14-19.69 128.33-21.12 126.33-21.12L126.33-21.12Q124.16-21.12 123.16-19.14L123.16-19.14 123.16-7.1Q124.09-5.25 126.38-5.25L126.38-5.25Q128.36-5.25 129.13-6.54 129.9-7.84 129.95-11.57L129.95-11.57ZM151.67 0.49L151.67 0.49Q146.35 0.49 143.37-2.69 140.39-5.86 140.39-11.77L140.39-11.77 140.39-13.87Q140.39-20.12 143.13-23.51 145.86-26.9 150.96-26.9L150.96-26.9Q155.94-26.9 158.46-23.72 160.97-20.53 161.02-14.28L161.02-14.28 161.02-10.89 147.28-10.89Q147.42-7.96 148.57-6.6 149.72-5.25 152.11-5.25L152.11-5.25Q155.58-5.25 157.9-7.62L157.9-7.62 160.61-3.44Q159.34-1.68 156.92-0.6 154.5 0.49 151.67 0.49ZM147.33-15.72L147.33-15.72 154.24-15.72 154.24-16.36Q154.19-18.73 153.45-19.95 152.72-21.17 150.92-21.17 149.11-21.17 148.29-19.87 147.47-18.58 147.33-15.72ZM178.04-26.59L177.96-19.75 175.67-19.95Q172.84-19.95 171.84-17.46L171.84-17.46 171.84 0 164.9 0 164.9-26.42 171.42-26.42 171.62-23.56Q173.25-26.9 176.13-26.9L176.13-26.9Q177.3-26.9 178.04-26.59L178.04-26.59ZM192.22-12.38L192.22-14.06Q192.22-20.07 195.05-23.49 197.88-26.9 202.89-26.9L202.89-26.9Q207.94-26.9 210.77-23.49 213.6-20.07 213.6-14.01L213.6-14.01 213.6-12.33Q213.6-6.3 210.8-2.91 207.99 0.49 202.93 0.49L202.93 0.49Q197.86 0.49 195.04-2.92 192.22-6.32 192.22-12.38L192.22-12.38ZM199.15-14.06L199.15-12.33Q199.15-5.25 202.93-5.25L202.93-5.25Q206.43-5.25 206.69-11.16L206.69-11.16 206.72-14.06Q206.72-17.68 205.72-19.42 204.72-21.17 202.89-21.17L202.89-21.17Q201.13-21.17 200.14-19.42 199.15-17.68 199.15-14.06L199.15-14.06ZM226.42 0L219.48 0 219.48-21.22 216.29-21.22 216.29-26.42 219.48-26.42 219.48-28.78Q219.51-33.15 221.79-35.58 224.07-38.01 228.1-38.01L228.1-38.01Q229.32-38.01 231.23-37.52L231.23-37.52 231.18-32.01Q230.47-32.23 229.49-32.23L229.49-32.23Q226.42-32.23 226.42-28.56L226.42-28.56 226.42-26.42 230.54-26.42 230.54-21.22 226.42-21.22 226.42 0ZM263.06-11.84L270.24-11.84Q269.97-5.76 266.82-2.64 263.67 0.49 257.93 0.49L257.93 0.49Q251.9 0.49 248.69-3.48 245.48-7.45 245.48-14.79L245.48-14.79 245.48-20.78Q245.48-28.1 248.8-32.07 252.12-36.04 258.03-36.04L258.03-36.04Q263.84-36.04 266.85-32.79 269.87-29.54 270.29-23.46L270.29-23.46 263.08-23.46Q262.99-27.22 261.92-28.65 260.86-30.08 258.03-30.08L258.03-30.08Q255.15-30.08 253.95-28.06 252.76-26.05 252.68-21.44L252.68-21.44 252.68-14.72Q252.68-9.42 253.87-7.45 255.05-5.47 257.93-5.47L257.93-5.47Q260.76-5.47 261.84-6.85 262.91-8.23 263.06-11.84L263.06-11.84ZM273.51-12.38L273.51-14.06Q273.51-20.07 276.34-23.49 279.17-26.9 284.17-26.9L284.17-26.9Q289.23-26.9 292.06-23.49 294.89-20.07 294.89-14.01L294.89-14.01 294.89-12.33Q294.89-6.3 292.08-2.91 289.28 0.49 284.22 0.49L284.22 0.49Q279.14 0.49 276.32-2.92 273.51-6.32 273.51-12.38L273.51-12.38ZM280.44-14.06L280.44-12.33Q280.44-5.25 284.22-5.25L284.22-5.25Q287.71-5.25 287.98-11.16L287.98-11.16 288.01-14.06Q288.01-17.68 287.01-19.42 286.01-21.17 284.17-21.17L284.17-21.17Q282.42-21.17 281.43-19.42 280.44-17.68 280.44-14.06L280.44-14.06ZM299.21-26.42L305.68-26.42 305.88-23.97Q308.2-26.9 312-26.9L312-26.9Q315.96-26.9 317.59-23.34L317.59-23.34Q319.86-26.9 324.06-26.9L324.06-26.9Q331-26.9 331.17-17.31L331.17-17.31 331.17 0 324.26 0 324.26-16.87Q324.26-19.17 323.62-20.14 322.99-21.12 321.48-21.12L321.48-21.12Q319.55-21.12 318.6-18.75L318.6-18.75 318.64-17.92 318.64 0 311.74 0 311.74-16.82Q311.74-19.09 311.12-20.1 310.51-21.12 308.95-21.12L308.95-21.12Q307.17-21.12 306.12-19.19L306.12-19.19 306.12 0 299.21 0 299.21-26.42ZM336.29-26.42L342.76-26.42 342.96-23.97Q345.28-26.9 349.09-26.9L349.09-26.9Q353.04-26.9 354.68-23.34L354.68-23.34Q356.95-26.9 361.15-26.9L361.15-26.9Q368.08-26.9 368.25-17.31L368.25-17.31 368.25 0 361.34 0 361.34-16.87Q361.34-19.17 360.71-20.14 360.07-21.12 358.56-21.12L358.56-21.12Q356.63-21.12 355.68-18.75L355.68-18.75 355.73-17.92 355.73 0 348.82 0 348.82-16.82Q348.82-19.09 348.21-20.1 347.6-21.12 346.03-21.12L346.03-21.12Q344.25-21.12 343.2-19.19L343.2-19.19 343.2 0 336.29 0 336.29-26.42ZM384.02 0.49L384.02 0.49Q378.7 0.49 375.72-2.69 372.74-5.86 372.74-11.77L372.74-11.77 372.74-13.87Q372.74-20.12 375.48-23.51 378.21-26.9 383.31-26.9L383.31-26.9Q388.29-26.9 390.81-23.72 393.32-20.53 393.37-14.28L393.37-14.28 393.37-10.89 379.63-10.89Q379.77-7.96 380.92-6.6 382.07-5.25 384.46-5.25L384.46-5.25Q387.93-5.25 390.25-7.62L390.25-7.62 392.96-3.44Q391.69-1.68 389.27-0.6 386.85 0.49 384.02 0.49ZM379.67-15.72L379.67-15.72 386.58-15.72 386.58-16.36Q386.53-18.73 385.8-19.95 385.07-21.17 383.26-21.17 381.46-21.17 380.64-19.87 379.82-18.58 379.67-15.72ZM410.38-26.59L410.31-19.75 408.02-19.95Q405.18-19.95 404.18-17.46L404.18-17.46 404.18 0 397.25 0 397.25-26.42 403.77-26.42 403.96-23.56Q405.6-26.9 408.48-26.9L408.48-26.9Q409.65-26.9 410.38-26.59L410.38-26.59ZM422.93-5.25L422.93-5.25Q425.93-5.25 425.98-9.16L425.98-9.16 432.48-9.16Q432.43-4.83 429.82-2.17 427.2 0.49 423.08 0.49L423.08 0.49Q417.98 0.49 415.29-2.69 412.6-5.86 412.56-12.04L412.56-12.04 412.56-14.14Q412.56-20.36 415.2-23.63 417.85-26.9 423.03-26.9L423.03-26.9Q427.4-26.9 429.91-24.21 432.43-21.51 432.48-16.55L432.48-16.55 425.98-16.55Q425.96-18.77 425.25-19.97 424.54-21.17 422.91-21.17L422.91-21.17Q421.1-21.17 420.32-19.89 419.54-18.6 419.49-14.92L419.49-14.92 419.49-12.23Q419.49-9.01 419.81-7.73 420.12-6.45 420.86-5.85 421.59-5.25 422.93-5.25ZM447.05 0.49L447.05 0.49Q441.73 0.49 438.75-2.69 435.77-5.86 435.77-11.77L435.77-11.77 435.77-13.87Q435.77-20.12 438.5-23.51 441.24-26.9 446.34-26.9L446.34-26.9Q451.32-26.9 453.84-23.72 456.35-20.53 456.4-14.28L456.4-14.28 456.4-10.89 442.66-10.89Q442.8-7.96 443.95-6.6 445.1-5.25 447.49-5.25L447.49-5.25Q450.96-5.25 453.28-7.62L453.28-7.62 455.99-3.44Q454.72-1.68 452.3-0.6 449.88 0.49 447.05 0.49ZM442.7-15.72L442.7-15.72 449.61-15.72 449.61-16.36Q449.56-18.73 448.83-19.95 448.1-21.17 446.29-21.17 444.49-21.17 443.67-19.87 442.85-18.58 442.7-15.72Z" opacity="1" transform="matrix(1,0,0,1,0,0)" fill="#53c8fa" class="undefined-text-1" data-fill-palette-color="secondary" id="text-1"></path></svg></g></svg></g></svg></g></svg></g><g></g></svg></g></svg></g></svg></g><path d="M0 50.503L0 1 244.431 1 244.431 50.503 236.152 50.503 236.152 9.279 8.279 9.279 8.279 50.503 0 50.503M0 196.697L0 246.2 244.431 246.2 244.431 196.697 236.152 196.697 236.152 237.921 8.279 237.921 8.279 196.697 0 196.697" fill="#010c80" stroke="transparent" data-fill-palette-color="primary"></path></svg></g><defs></defs></svg><rect width="244.43135999999998" height="247.2" fill="none" stroke="none" visibility="hidden"></rect></g></svg></g></svg>